{"asset": {"version": "2.0", "generator": "Forge regression fixture"}, "buffers": [{"byteLength": 360, "uri": "data:application/octet-stream;base64,"}], "bufferViews": [{"buffer": 0, "byteOffset": 0, "byteLength": 36}, {"buffer": 0, "byteOffset": 36, "byteLength": 24}, {"buffer": 0, "byteOffset": 60, "byteLength": 48}, {"buffer": 0, "byteOffset": 108, "byteLength": 64}, {"buffer": 0, "byteOffset": 172, "byteLength": 8}, {"buffer": 0, "byteOffset": 180, "byteLength": 24}, {"buffer": 0, "byteOffset": 204, "byteLength": 64}, {"buffer": 0, "byteOffset": 268, "byteLength": 24}, {"buffer": 0, "byteOffset": 292, "byteLength": 24}, {"buffer": 0, "byteOffset": 316, "byteLength": 36}, {"buffer": 0, "byteOffset": 352, "byteLength": 8}], "accessors": [{"bufferView": 0, "componentType": 5126, "count": 3, "type": "VEC3", "min": [-0.8, -0.6, 0], "max": [0.8, 0.8, 0]}, {"bufferView": 1, "componentType": 5123, "count": 3, "type": "VEC4"}, {"bufferView": 2, "componentType": 5126, "count": 3, "type": "VEC4"}, {"bufferView": 3, "componentType": 5126, "count": 1, "type": "MAT4"}, {"bufferView": 4, "componentType": 5126, "count": 2, "type": "SCALAR", "min": [0], "max": [1]}, {"bufferView": 5, "componentType": 5126, "count": 2, "type": "VEC3"}, {"bufferView": 6, "componentType": 5126, "count": 1, "type": "MAT4"}, {"bufferView": 7, "componentType": 5126, "count": 2, "type": "VEC3"}, {"bufferView": 8, "componentType": 5126, "count": 2, "type": "VEC3"}, {"bufferView": 9, "componentType": 5126, "count": 3, "type": "VEC3", "min": [0, 0, 0], "max": [0, 1, 0]}, {"bufferView": 10, "componentType": 5126, "count": 2, "type": "SCALAR"}], "materials": [{"pbrMetallicRoughness": {"baseColorFactor": [0.3, 0.8, 0.4, 1], "metallicFactor": 0}}], "meshes": [{"primitives": [{"attributes": {"POSITION": 0, "JOINTS_0": 1, "WEIGHTS_0": 2}, "material": 0, "targets": [{"POSITION": 9}]}], "extras": {"targetNames": ["Smile"]}, "weights": [0]}], "nodes": [{"name": "Root", "children": [1, 2]}, {"name": "Triangle", "mesh": 0, "skin": 0}, {"name": "Joint", "translation": [0, 0, 0]}], "skins": [{"joints": [2], "inverseBindMatrices": 6, "skeleton": 2}], "animations": [{"name": "Move", "samplers": [{"input": 4, "output": 5, "interpolation": "LINEAR"}, {"input": 4, "output": 10, "interpolation": "LINEAR"}], "channels": [{"sampler": 0, "target": {"node": 2, "path": "translation"}}, {"sampler": 1, "target": {"node": 1, "path": "weights"}}]}, {"name": "Idle", "samplers": [{"input": 4, "output": 7, "interpolation": "LINEAR"}], "channels": [{"sampler": 0, "target": {"node": 2, "path": "translation"}}]}, {"name": "Raise", "samplers": [{"input": 4, "output": 8, "interpolation": "LINEAR"}], "channels": [{"sampler": 0, "target": {"node": 2, "path": "translation"}}]}], "scenes": [{"nodes": [0]}], "scene": 0}